<svg width="45" height="45" viewBox="0 0 45 45" fill="none" xmlns="http://www.w3.org/2000/svg">
<rect width="45" height="45" rx="6" fill="#A735ED"/>
<path d="M39.1964 1.5H5.80357C4.59589 1.5 3.43767 1.97411 2.58371 2.81802C1.72975 3.66193 1.25 4.80653 1.25 6L1.25 39C1.25 40.1935 1.72975 41.3381 2.58371 42.182C3.43767 43.0259 4.59589 43.5 5.80357 43.5H18.8239V29.2209H12.8474V22.5H18.8239V17.3775C18.8239 11.5509 22.334 8.3325 27.71 8.3325C30.2847 8.3325 32.977 8.78625 32.977 8.78625V14.505H30.0105C27.0877 14.505 26.1761 16.2975 26.1761 18.1359V22.5H32.7009L31.6574 29.2209H26.1761V43.5H39.1964C40.4041 43.5 41.5623 43.0259 42.4163 42.182C43.2702 41.3381 43.75 40.1935 43.75 39V6C43.75 4.80653 43.2702 3.66193 42.4163 2.81802C41.5623 1.97411 40.4041 1.5 39.1964 1.5Z" fill="white"/>
<path d="M17.4133 18.6218C17.4176 18.682 17.4176 18.7423 17.4176 18.8025C17.4176 20.6388 16.001 22.7546 13.4119 22.7546C12.6143 22.7546 11.8733 22.5267 11.25 22.131C11.3633 22.1439 11.4723 22.1482 11.59 22.1482C12.2481 22.1482 12.854 21.9289 13.3378 21.5548C12.7189 21.5419 12.2002 21.1419 12.0215 20.5915C12.1087 20.6044 12.1958 20.613 12.2874 20.613C12.4138 20.613 12.5402 20.5958 12.6579 20.5657C12.0128 20.4366 11.5289 19.8776 11.5289 19.2024V19.1852C11.7164 19.2884 11.9343 19.3529 12.1653 19.3615C11.7861 19.1121 11.5377 18.6863 11.5377 18.2047C11.5377 17.9467 11.6074 17.7101 11.7294 17.5037C12.4225 18.3466 13.4642 18.8971 14.6324 18.9573C14.6106 18.8541 14.5975 18.7466 14.5975 18.6391C14.5975 17.8736 15.2252 17.25 16.0054 17.25C16.4107 17.25 16.7769 17.4177 17.034 17.6886C17.3522 17.6284 17.6573 17.5123 17.9276 17.3532C17.823 17.6758 17.6007 17.9467 17.3086 18.1187C17.592 18.0886 17.8666 18.0112 18.1194 17.9037C17.9276 18.1789 17.6879 18.424 17.4133 18.6218Z" fill="#26B6E3"/>
<circle cx="6.875" cy="7.5" r="3.75" fill="#A735ED"/>
</svg>
