<svg width="138" height="35" viewBox="0 0 138 35" fill="none" xmlns="http://www.w3.org/2000/svg">
  <rect x="54" width="35" height="35" rx="4" fill="#A735ED" />
  <path d="M84.3334 1.1665H58.6667C57.7385 1.1665 56.8483 1.53525 56.1919 2.19163C55.5355 2.84801 55.1667 3.73825 55.1667 4.6665V30.3332C55.1667 31.2614 55.5355 32.1517 56.1919 32.808C56.8483 33.4644 57.7385 33.8332 58.6667 33.8332H68.6746V22.7272H64.0808V17.4998H68.6746V13.5157C68.6746 8.9839 71.3725 6.48067 75.5047 6.48067C77.4836 6.48067 79.553 6.83359 79.553 6.83359V11.2815H77.2729C75.0263 11.2815 74.3256 12.6757 74.3256 14.1056V17.4998H79.3408L78.5387 22.7272H74.3256V33.8332H84.3334C85.2617 33.8332 86.1519 33.4644 86.8083 32.808C87.4647 32.1517 87.8334 31.2614 87.8334 30.3332V4.6665C87.8334 3.73825 87.4647 2.84801 86.8083 2.19163C86.1519 1.53525 85.2617 1.1665 84.3334 1.1665Z" fill="white" />
  <path d="M67.5436 14.4835C67.547 14.5303 67.547 14.5772 67.547 14.624C67.547 16.0522 66.4453 17.6979 64.4315 17.6979C63.8111 17.6979 63.2348 17.5206 62.75 17.2129C62.8381 17.2229 62.9229 17.2262 63.0144 17.2262C63.5263 17.2262 63.9976 17.0557 64.3739 16.7647C63.8925 16.7546 63.489 16.4436 63.35 16.0154C63.4179 16.0254 63.4857 16.0321 63.5569 16.0321C63.6552 16.0321 63.7535 16.0188 63.845 15.9954C63.3433 15.895 62.967 15.4602 62.967 14.935V14.9217C63.1127 15.0019 63.2823 15.0521 63.4619 15.0588C63.167 14.8648 62.9737 14.5337 62.9737 14.159C62.9737 13.9584 63.028 13.7744 63.1229 13.6138C63.6619 14.2694 64.4722 14.6976 65.3807 14.7444C65.3638 14.6641 65.3536 14.5805 65.3536 14.4969C65.3536 13.9015 65.8418 13.4165 66.4486 13.4165C66.7639 13.4165 67.0487 13.547 67.2487 13.7577C67.4962 13.7108 67.7335 13.6205 67.9437 13.4968C67.8623 13.7476 67.6894 13.9584 67.4623 14.0922C67.6826 14.0688 67.8962 14.0085 68.0928 13.9249C67.9437 14.139 67.7572 14.3296 67.5436 14.4835Z" fill="#26B6E3" />
  <ellipse cx="60.4167" cy="6.41667" rx="2.91667" ry="2.91667" fill="#A735ED" />
  <path d="M15.418 7.40625H20.6738V24.3164C20.6738 26.2852 20.252 27.9434 19.4082 29.291C18.5762 30.6387 17.4219 31.6523 15.9453 32.332C14.4805 33.0117 12.793 33.3516 10.8828 33.3516C8.97266 33.3516 7.27344 33.0117 5.78516 32.332C4.30859 31.6523 3.14844 30.6387 2.30469 29.291C1.47266 27.9434 1.05664 26.2852 1.05664 24.3164V7.40625H6.33008V24.3164C6.33008 25.4648 6.51172 26.4023 6.875 27.1289C7.23828 27.8555 7.75977 28.3887 8.43945 28.7285C9.13086 29.0684 9.94531 29.2383 10.8828 29.2383C11.8438 29.2383 12.6582 29.0684 13.3262 28.7285C14.0059 28.3887 14.5215 27.8555 14.873 27.1289C15.2363 26.4023 15.418 25.4648 15.418 24.3164V7.40625ZM29.6562 18.041V33H24.5938V13.9805H29.3398L29.6562 18.041ZM28.918 22.8223H27.5469C27.5469 21.416 27.7285 20.1504 28.0918 19.0254C28.4551 17.8887 28.9648 16.9219 29.6211 16.125C30.2773 15.3164 31.0566 14.7012 31.959 14.2793C32.873 13.8457 33.8926 13.6289 35.0176 13.6289C35.9082 13.6289 36.7227 13.7578 37.4609 14.0156C38.1992 14.2734 38.832 14.6836 39.3594 15.2461C39.8984 15.8086 40.3086 16.5527 40.5898 17.4785C40.8828 18.4043 41.0293 19.5352 41.0293 20.8711V33H35.9316V20.8535C35.9316 20.0098 35.8145 19.3535 35.5801 18.8848C35.3457 18.416 35 18.0879 34.543 17.9004C34.0977 17.7012 33.5469 17.6016 32.8906 17.6016C32.2109 17.6016 31.6191 17.7363 31.1152 18.0059C30.623 18.2754 30.2129 18.6504 29.8848 19.1309C29.5684 19.5996 29.3281 20.1504 29.1641 20.7832C29 21.416 28.918 22.0957 28.918 22.8223ZM50.2227 13.9805V33H45.1426V13.9805H50.2227ZM44.8262 9.02344C44.8262 8.28516 45.084 7.67578 45.5996 7.19531C46.1152 6.71484 46.8066 6.47461 47.6738 6.47461C48.5293 6.47461 49.2148 6.71484 49.7305 7.19531C50.2578 7.67578 50.5215 8.28516 50.5215 9.02344C50.5215 9.76172 50.2578 10.3711 49.7305 10.8516C49.2148 11.332 48.5293 11.5723 47.6738 11.5723C46.8066 11.5723 46.1152 11.332 45.5996 10.8516C45.084 10.3711 44.8262 9.76172 44.8262 9.02344Z" fill="#A735ED" />
  <path d="M97.3125 13.9805V33H92.2324V13.9805H97.3125ZM91.916 9.02344C91.916 8.28516 92.1738 7.67578 92.6895 7.19531C93.2051 6.71484 93.8965 6.47461 94.7637 6.47461C95.6191 6.47461 96.3047 6.71484 96.8203 7.19531C97.3477 7.67578 97.6113 8.28516 97.6113 9.02344C97.6113 9.76172 97.3477 10.3711 96.8203 10.8516C96.3047 11.332 95.6191 11.5723 94.7637 11.5723C93.8965 11.5723 93.2051 11.332 92.6895 10.8516C92.1738 10.3711 91.916 9.76172 91.916 9.02344ZM110.25 33.3516C108.773 33.3516 107.449 33.1172 106.277 32.6484C105.105 32.168 104.109 31.5059 103.289 30.6621C102.48 29.8184 101.859 28.8398 101.426 27.7266C100.992 26.6016 100.775 25.4062 100.775 24.1406V23.4375C100.775 21.9961 100.98 20.6777 101.391 19.4824C101.801 18.2871 102.387 17.25 103.148 16.3711C103.922 15.4922 104.859 14.8184 105.961 14.3496C107.062 13.8691 108.305 13.6289 109.688 13.6289C111.035 13.6289 112.23 13.8516 113.273 14.2969C114.316 14.7422 115.189 15.375 115.893 16.1953C116.607 17.0156 117.146 18 117.51 19.1484C117.873 20.2852 118.055 21.5508 118.055 22.9453V25.0547H102.938V21.6797H113.08V21.293C113.08 20.5898 112.951 19.9629 112.693 19.4121C112.447 18.8496 112.072 18.4043 111.568 18.0762C111.064 17.748 110.42 17.584 109.635 17.584C108.967 17.584 108.393 17.7305 107.912 18.0234C107.432 18.3164 107.039 18.7266 106.734 19.2539C106.441 19.7812 106.219 20.4023 106.066 21.1172C105.926 21.8203 105.855 22.5938 105.855 23.4375V24.1406C105.855 24.9023 105.961 25.6055 106.172 26.25C106.395 26.8945 106.705 27.4512 107.104 27.9199C107.514 28.3887 108.006 28.752 108.58 29.0098C109.166 29.2676 109.828 29.3965 110.566 29.3965C111.48 29.3965 112.33 29.2207 113.115 28.8691C113.912 28.5059 114.598 27.9609 115.172 27.2344L117.633 29.9062C117.234 30.4805 116.689 31.0312 115.998 31.5586C115.318 32.0859 114.498 32.5195 113.537 32.8594C112.576 33.1875 111.48 33.3516 110.25 33.3516ZM132.17 28.8516V6H137.268V33H132.68L132.17 28.8516ZM120.146 23.7188V23.3496C120.146 21.8965 120.311 20.5781 120.639 19.3945C120.967 18.1992 121.447 17.1738 122.08 16.3184C122.713 15.4629 123.492 14.8008 124.418 14.332C125.344 13.8633 126.398 13.6289 127.582 13.6289C128.695 13.6289 129.668 13.8633 130.5 14.332C131.344 14.8008 132.059 15.4688 132.645 16.3359C133.242 17.1914 133.723 18.2051 134.086 19.377C134.449 20.5371 134.713 21.8086 134.877 23.1914V24C134.713 25.3242 134.449 26.5547 134.086 27.6914C133.723 28.8281 133.242 29.8242 132.645 30.6797C132.059 31.5234 131.344 32.1797 130.5 32.6484C129.656 33.1172 128.672 33.3516 127.547 33.3516C126.363 33.3516 125.309 33.1113 124.383 32.6309C123.469 32.1504 122.695 31.4766 122.062 30.6094C121.441 29.7422 120.967 28.7227 120.639 27.5508C120.311 26.3789 120.146 25.1016 120.146 23.7188ZM125.209 23.3496V23.7188C125.209 24.5039 125.268 25.2363 125.385 25.916C125.514 26.5957 125.719 27.1992 126 27.7266C126.293 28.2422 126.668 28.6465 127.125 28.9395C127.594 29.2207 128.162 29.3613 128.83 29.3613C129.697 29.3613 130.412 29.168 130.975 28.7812C131.537 28.3828 131.965 27.8379 132.258 27.1465C132.562 26.4551 132.738 25.6582 132.785 24.7559V22.4531C132.75 21.7148 132.645 21.0527 132.469 20.4668C132.305 19.8691 132.059 19.3594 131.73 18.9375C131.414 18.5156 131.016 18.1875 130.535 17.9531C130.066 17.7188 129.51 17.6016 128.865 17.6016C128.209 17.6016 127.646 17.7539 127.178 18.0586C126.709 18.3516 126.328 18.7559 126.035 19.2715C125.754 19.7871 125.543 20.3965 125.402 21.0996C125.273 21.791 125.209 22.541 125.209 23.3496Z" fill="#A735ED" />
</svg>