<svg width="21" height="16" viewBox="0 0 21 16" fill="none" xmlns="http://www.w3.org/2000/svg">
<path d="M0 7.7717C0 12.0643 4.24107 15.5434 9.47522 15.5434C11.6436 15.5434 13.6297 14.9393 15.2287 13.9374C17.0235 14.3898 18.545 15.3309 18.5632 15.3461C18.8821 15.5464 19.3468 15.6011 19.7476 15.4857C20.1485 15.3704 20.4082 15.1062 20.4082 14.8148C20.4082 12.9478 19.2374 11.4754 18.299 10.592C18.7136 9.71462 18.9504 8.76745 18.9504 7.7717C18.9504 3.47905 14.7094 0 9.47522 0C4.24107 0 0 3.47905 0 7.7717ZM16.7638 7.7717C16.7638 8.58226 16.5771 9.38372 16.2126 10.1518L15.8847 10.8409L16.5133 11.4329C16.9734 11.867 17.4882 12.462 17.8344 13.1785C17.2832 12.9569 16.6636 12.7413 16.0031 12.5744L14.723 12.2526L13.73 12.8779C12.8508 13.4274 11.3976 14.0862 9.47522 14.0862C5.45736 14.0862 2.18659 11.2538 2.18659 7.7717C2.18659 4.28961 5.45736 1.45719 9.47522 1.45719C13.4931 1.45719 16.7638 4.28961 16.7638 7.7717Z" fill="#4B4B4B"/>
</svg>
