<svg width="26" height="26" viewBox="0 0 26 26" fill="none" xmlns="http://www.w3.org/2000/svg">
<path d="M25.3036 8.125C25.6866 8.125 26 7.85078 26 7.51562V5.48438C26 5.14922 25.6866 4.875 25.3036 4.875H24.1429V2.4375C24.1429 1.0918 22.8951 0 21.3571 0H2.78571C1.24777 0 0 1.0918 0 2.4375V23.5625C0 24.9082 1.24777 26 2.78571 26H21.3571C22.8951 26 24.1429 24.9082 24.1429 23.5625V21.125H25.3036C25.6866 21.125 26 20.8508 26 20.5156V18.4844C26 18.1492 25.6866 17.875 25.3036 17.875H24.1429V14.625H25.3036C25.6866 14.625 26 14.3508 26 14.0156V11.9844C26 11.6492 25.6866 11.375 25.3036 11.375H24.1429V8.125H25.3036ZM22.5333 24.2667H1.73333V13V1.73333H22.5333V24.2667ZM12.0714 13C14.1201 13 15.7857 11.5426 15.7857 9.75C15.7857 7.95742 14.1201 6.5 12.0714 6.5C10.0228 6.5 8.35714 7.95742 8.35714 9.75C8.35714 11.5426 10.0228 13 12.0714 13ZM6.87143 19.5H17.2714C17.9911 19.5 18.5714 19.0633 18.5714 18.525V17.55C18.5714 15.9352 16.8246 14.625 14.6714 14.625C14.0446 14.625 13.5862 15.0312 12.0714 15.0312C10.5103 15.0312 10.133 14.625 9.47143 14.625C7.3183 14.625 5.57143 15.9352 5.57143 17.55V18.525C5.57143 19.0633 6.15179 19.5 6.87143 19.5Z" fill="#4B4B4B"/>
</svg>
