<svg width="30" height="30" viewBox="0 0 30 30" fill="none" xmlns="http://www.w3.org/2000/svg">
<path d="M21.5625 9.375C23.1158 9.375 24.375 8.1158 24.375 6.5625C24.375 5.0092 23.1158 3.75 21.5625 3.75C20.0092 3.75 18.75 5.0092 18.75 6.5625C18.75 8.1158 20.0092 9.375 21.5625 9.375Z" stroke="#4B4B4B" stroke-width="2" stroke-miterlimit="10" stroke-linecap="round" stroke-linejoin="round"/>
<path d="M2.8125 6.5625H18.75" stroke="#4B4B4B" stroke-width="2" stroke-miterlimit="10" stroke-linecap="round" stroke-linejoin="round"/>
<path d="M27.1875 6.5625H24.375" stroke="#4B4B4B" stroke-width="2" stroke-miterlimit="10" stroke-linecap="round" stroke-linejoin="round"/>
<path d="M11.25 17.8125C12.8033 17.8125 14.0625 16.5533 14.0625 15C14.0625 13.4467 12.8033 12.1875 11.25 12.1875C9.6967 12.1875 8.4375 13.4467 8.4375 15C8.4375 16.5533 9.6967 17.8125 11.25 17.8125Z" stroke="#4B4B4B" stroke-width="2" stroke-miterlimit="10" stroke-linecap="round" stroke-linejoin="round"/>
<path d="M2.8125 15H8.4375" stroke="#4B4B4B" stroke-width="2" stroke-miterlimit="10" stroke-linecap="round" stroke-linejoin="round"/>
<path d="M27.1875 15H14.0625" stroke="#4B4B4B" stroke-width="2" stroke-miterlimit="10" stroke-linecap="round" stroke-linejoin="round"/>
<path d="M21.5625 26.25C23.1158 26.25 24.375 24.9908 24.375 23.4375C24.375 21.8842 23.1158 20.625 21.5625 20.625C20.0092 20.625 18.75 21.8842 18.75 23.4375C18.75 24.9908 20.0092 26.25 21.5625 26.25Z" stroke="#4B4B4B" stroke-width="2" stroke-miterlimit="10" stroke-linecap="round" stroke-linejoin="round"/>
<path d="M2.8125 23.4375H18.75" stroke="#4B4B4B" stroke-width="2" stroke-miterlimit="10" stroke-linecap="round" stroke-linejoin="round"/>
<path d="M27.1875 23.4375H24.375" stroke="#4B4B4B" stroke-width="2" stroke-miterlimit="10" stroke-linecap="round" stroke-linejoin="round"/>
</svg>
