<svg width="32" height="24" viewBox="0 0 32 24" fill="none" xmlns="http://www.w3.org/2000/svg">
<path d="M19.9597 11.2608C21.46 10.1803 22.4278 8.50679 22.4278 6.62606C22.4278 3.37508 19.5443 0.730469 15.9995 0.730469C12.4546 0.730469 9.5711 3.37502 9.5711 6.62606C9.5711 8.50679 10.5399 10.1803 12.0393 11.2608C8.08853 12.7088 5.28555 16.2486 5.28555 20.3823V22.3475C5.28555 22.8907 5.76476 23.3301 6.357 23.3301H25.642C26.2342 23.3301 26.7134 22.8907 26.7134 22.3475V20.3823C26.7134 16.2476 23.9115 12.7088 19.9597 11.2608ZM15.9995 2.69573C18.3631 2.69573 20.2851 4.4584 20.2851 6.62608C20.2851 8.79377 18.3631 10.5564 15.9995 10.5564C13.636 10.5564 11.7139 8.79372 11.7139 6.62606C11.7139 4.4584 13.6359 2.6957 15.9995 2.6957L15.9995 2.69573ZM24.5706 21.365H7.42836V20.3823C7.42836 16.048 11.2735 12.5216 16.0005 12.5216C20.7266 12.5216 24.5706 16.048 24.5706 20.3823V21.365L24.5706 21.365Z" fill="#4B4B4B"/>
<path d="M8.82725 11.6022C8.85657 11.5428 8.85657 11.4794 8.87119 11.418C8.88165 11.3806 8.89316 11.3451 8.89844 11.3057C8.90676 11.228 8.90157 11.1542 8.89006 11.0784C8.88587 11.0381 8.89633 10.9997 8.88587 10.9594C8.8796 10.9363 8.86185 10.92 8.85449 10.897C8.83779 10.8528 8.81474 10.8135 8.79171 10.7722C8.74776 10.6878 8.6996 10.611 8.63371 10.5429C8.62428 10.5334 8.61276 10.5266 8.60233 10.517C8.50692 10.4254 8.39234 10.3522 8.26542 10.3021C7.10614 9.82807 6.35699 8.77254 6.35699 7.60955C6.35699 6.24117 7.36765 5.06287 8.8157 4.74332C9.39115 4.61567 9.74479 4.08504 9.60669 3.55728C9.46647 3.0295 8.88578 2.70903 8.31347 2.83185C5.8997 3.36536 4.21413 5.33054 4.21413 7.60955C4.21413 8.85317 4.72996 10.019 5.60676 10.9056C2.81849 12.2308 1.00006 14.881 1.00006 17.8797V19.3997C1.00006 19.9428 1.47924 20.3823 2.07145 20.3823C2.66365 20.3823 3.14283 19.9428 3.14283 19.3997V17.8797C3.14283 15.1622 5.13496 12.8305 7.99337 12.1703C8.34909 12.1242 8.67238 11.9256 8.82728 11.6022H8.82725ZM26.388 10.9056C27.2648 10.019 27.7806 8.85306 27.7806 7.60949C27.7806 5.39003 26.1505 3.43828 23.8162 2.8635C23.246 2.72335 22.658 3.03331 22.5031 3.55725C22.3493 4.08213 22.6883 4.62048 23.2596 4.76151C24.6595 5.106 25.6378 6.27764 25.6378 7.60955C25.6378 8.77254 24.8897 9.82617 23.7315 10.3011C23.6018 10.353 23.4877 10.4249 23.3894 10.519C23.381 10.5276 23.3705 10.5334 23.3622 10.542C23.2952 10.6101 23.2471 10.6888 23.2021 10.7742C23.1801 10.8155 23.1561 10.8538 23.1404 10.897C23.1331 10.9191 23.1152 10.9364 23.109 10.9594C23.0985 10.9997 23.109 11.0381 23.1048 11.0784C23.0933 11.1542 23.0881 11.2281 23.0964 11.3058C23.1017 11.3452 23.1131 11.3806 23.1237 11.4181C23.1383 11.4795 23.1383 11.5428 23.1676 11.6023C23.3225 11.9257 23.6457 12.1243 24.0014 12.1704C26.8598 12.8306 28.852 15.1623 28.852 17.8798V19.3998C28.852 19.9429 29.3312 20.3823 29.9234 20.3823C30.5156 20.3823 30.9947 19.9429 30.9947 19.3998V17.8798C30.9948 14.881 29.1764 12.2308 26.388 10.9056Z" fill="#4B4B4B"/>
</svg>
