<svg class="home-icon" width="26" height="26" viewBox="0 0 26 26" fill="none" xmlns="http://www.w3.org/2000/svg">
<path d="M24.4334 6.90995L14.9601 0.73828C14.3758 0.361513 13.6953 0.161133 13.0001 0.161133C12.3049 0.161133 11.6244 0.361513 11.0401 0.73828L1.56675 6.90995C1.14881 7.15904 0.801057 7.51028 0.55616 7.93069C0.311263 8.3511 0.177262 8.82686 0.166748 9.31328V25.8333H10.6667V19.335H15.3334V25.8333H25.8334V9.31328C25.8229 8.82686 25.6889 8.3511 25.444 7.93069C25.1991 7.51028 24.8514 7.15904 24.4334 6.90995ZM23.5001 23.5H17.6668V17.0016H8.33342V23.5H2.50008V9.31328C2.5086 9.21814 2.54083 9.12664 2.59382 9.04716C2.6468 8.96768 2.71886 8.90274 2.80342 8.85828L12.2768 2.68661C12.4844 2.56103 12.7224 2.49464 12.9651 2.49464C13.2077 2.49464 13.4458 2.56103 13.6534 2.68661L23.1268 8.85828C23.2113 8.90274 23.2834 8.96768 23.3364 9.04716C23.3893 9.12664 23.4216 9.21814 23.4301 9.31328L23.5001 23.5Z" fill="#4B4B4B"/>
</svg>
