<svg width="30" height="29" viewBox="0 0 30 29" fill="none" xmlns="http://www.w3.org/2000/svg">
<path d="M15 0.453125C6.97518 0.453125 0.46875 6.74494 0.46875 14.5C0.46875 22.2596 6.97518 28.5469 15 28.5469C23.0248 28.5469 29.5312 22.2596 29.5312 14.5C29.5312 6.74494 23.0248 0.453125 15 0.453125ZM15 6.68359C16.3591 6.68359 17.4609 7.74866 17.4609 9.0625C17.4609 10.3763 16.3591 11.4414 15 11.4414C13.6409 11.4414 12.5391 10.3763 12.5391 9.0625C12.5391 7.74866 13.6409 6.68359 15 6.68359ZM18.2812 21.0703C18.2812 21.4457 17.9664 21.75 17.5781 21.75H12.4219C12.0336 21.75 11.7188 21.4457 11.7188 21.0703V19.7109C11.7188 19.3356 12.0336 19.0312 12.4219 19.0312H13.125V15.4062H12.4219C12.0336 15.4062 11.7188 15.1019 11.7188 14.7266V13.3672C11.7188 12.9918 12.0336 12.6875 12.4219 12.6875H16.1719C16.5602 12.6875 16.875 12.9918 16.875 13.3672V19.0312H17.5781C17.9664 19.0312 18.2812 19.3356 18.2812 19.7109V21.0703Z" fill="#616161"/>
</svg>
