<svg width="45" height="45" viewBox="0 0 45 45" fill="none" xmlns="http://www.w3.org/2000/svg">
<path d="M22.495 10.9626C28.8798 10.9626 34.0298 16.1137 34.0298 22.5C34.0298 28.8863 28.8798 34.0374 22.495 34.0374C16.1102 34.0374 10.9601 28.8863 10.9601 22.5C10.9601 16.1137 16.1102 10.9626 22.495 10.9626ZM22.495 30.0008C26.621 30.0008 29.9941 26.637 29.9941 22.5C29.9941 18.363 26.6311 14.9992 22.495 14.9992C18.3589 14.9992 14.9958 18.363 14.9958 22.5C14.9958 26.637 18.3689 30.0008 22.495 30.0008ZM7.79782 10.4906C7.79782 11.9868 9.00251 13.1817 10.4883 13.1817C11.9841 13.1817 13.1788 11.9767 13.1788 10.4906C13.1788 9.00452 11.9741 7.79956 10.4883 7.79956C9.00251 7.79956 7.79782 9.00452 7.79782 10.4906ZM0.158115 13.2219C0.328777 9.61704 1.15198 6.42391 3.79225 3.79309C6.42248 1.16228 9.61489 0.338893 13.2189 0.15815C16.9334 -0.0527167 28.0666 -0.0527167 31.7811 0.15815C35.3751 0.328852 38.5675 1.15224 41.2078 3.78305C43.848 6.41387 44.6612 9.60699 44.8419 13.2118C45.0527 16.9271 45.0527 28.0629 44.8419 31.7781C44.6712 35.383 43.848 38.5761 41.2078 41.2069C38.5675 43.8377 35.3851 44.6611 31.7811 44.8418C28.0666 45.0527 16.9334 45.0527 13.2189 44.8418C9.61489 44.6711 6.42248 43.8478 3.79225 41.2069C1.16202 38.5761 0.338818 35.383 0.158115 31.7781C-0.0527039 28.0629 -0.0527039 16.9371 0.158115 13.2219ZM4.95678 35.7645C5.73982 37.7326 7.25571 39.2489 9.23341 40.0421C12.1949 41.2169 19.2223 40.9458 22.495 40.9458C25.7677 40.9458 32.8051 41.2069 35.7566 40.0421C37.7242 39.2589 39.2401 37.7427 40.0332 35.7645C41.2078 32.8024 40.9367 25.7735 40.9367 22.5C40.9367 19.2265 41.1977 12.1876 40.0332 9.23547C39.2501 7.26738 37.7342 5.75114 35.7566 4.95788C32.795 3.78305 25.7677 4.05417 22.495 4.05417C19.2223 4.05417 12.1849 3.79309 9.23341 4.95788C7.26575 5.7411 5.74986 7.25734 4.95678 9.23547C3.78221 12.1976 4.05326 19.2265 4.05326 22.5C4.05326 25.7735 3.78221 32.8124 4.95678 35.7645Z" fill="#E845BA"/>
</svg>
