<svg width="20" height="17" viewBox="0 0 20 17" fill="none" xmlns="http://www.w3.org/2000/svg">
<path d="M17.9062 1.22617C15.6484 -0.617527 12.1602 -0.340594 10 1.79521C7.83984 -0.340594 4.35156 -0.621321 2.09375 1.22617C-0.843745 3.62752 -0.414058 7.54253 1.67969 9.61763L8.53125 16.3968C8.92187 16.7838 9.44531 17 10 17C10.5586 17 11.0781 16.7876 11.4687 16.4006L18.3203 9.62143C20.4101 7.54632 20.8476 3.63132 17.9062 1.22617ZM16.9844 8.33919L10.1328 15.1184C10.0391 15.2094 9.96094 15.2094 9.86719 15.1184L3.01563 8.33919C1.58985 6.92796 1.30078 4.25726 3.30078 2.62222C4.82031 1.38171 7.16406 1.56759 8.63281 3.02055L10 4.37486L11.3672 3.02055C12.8437 1.56001 15.1875 1.38171 16.6992 2.61842C18.6953 4.25347 18.3984 6.93935 16.9844 8.33919Z" fill="#4B4B4B"/>
</svg>
