<svg width="28" height="24" viewBox="0 0 28 24" fill="none" xmlns="http://www.w3.org/2000/svg">
<path d="M25.8583 18.975C27.195 17.5232 27.997 15.7018 27.997 13.7143C27.997 9.42857 24.2787 5.8875 19.4327 5.25536C17.9017 2.16964 14.3049 0 10.1102 0C4.52548 0 0.000327363 3.83571 0.000327363 8.57143C0.000327363 10.5536 0.802315 12.375 2.13896 13.8321C1.3953 15.4768 0.325983 16.7518 0.306541 16.7732C0.000327388 17.1321 -0.0871622 17.6571 0.0926774 18.1125C0.267656 18.5679 0.675941 18.8625 1.12311 18.8625C3.72349 18.8625 5.82324 17.7804 7.20849 16.7839C7.65566 16.8964 8.11741 16.9821 8.58888 17.0464C10.1151 20.1214 13.6973 22.2857 17.8871 22.2857C18.8981 22.2857 19.8702 22.1571 20.7937 21.9214C22.1789 22.9125 24.2738 24 26.879 24C27.3262 24 27.7296 23.7054 27.9095 23.25C28.0845 22.7946 28.0018 22.2696 27.6956 21.9107C27.6762 21.8946 26.602 20.6196 25.8583 18.975ZM6.76618 14.0304L5.93503 14.625C5.2497 15.1125 4.54978 15.4982 3.84014 15.7714C3.97138 15.5196 4.10261 15.2518 4.22899 14.9786L4.98237 13.3125L3.77696 12C3.12079 11.2821 2.33338 10.1089 2.33338 8.57143C2.33338 5.31964 5.89615 2.57143 10.1102 2.57143C14.3243 2.57143 17.8871 5.31964 17.8871 8.57143C17.8871 11.8232 14.3243 14.5714 10.1102 14.5714C9.30824 14.5714 8.50625 14.4696 7.72857 14.2714L6.76618 14.0304ZM24.2203 17.1429L23.0198 18.45L23.7732 20.1161C23.8995 20.3893 24.0308 20.6571 24.162 20.9089C23.4524 20.6357 22.7525 20.25 22.0671 19.7625L21.236 19.1679L20.2687 19.4143C19.491 19.6125 18.6891 19.7143 17.8871 19.7143C15.2624 19.7143 12.9196 18.6375 11.5052 17.0518C16.4289 16.4732 20.2201 12.9054 20.2201 8.57143C20.2201 8.38929 20.2007 8.2125 20.1861 8.03571C23.3163 8.8125 25.6639 11.0786 25.6639 13.7143C25.6639 15.2518 24.8765 16.425 24.2203 17.1429Z" fill="#4B4B4B"/>
</svg>
