<svg width="24" height="26" viewBox="0 0 24 26" fill="none" xmlns="http://www.w3.org/2000/svg">
<path d="M23.5387 18.3975C22.5037 17.3433 20.5671 15.7574 20.5671 10.5625C20.5671 6.6168 17.6486 3.4582 13.7132 2.68328V1.625C13.7132 0.727695 12.9461 0 12 0C11.0539 0 10.2868 0.727695 10.2868 1.625V2.68328C6.35145 3.4582 3.43288 6.6168 3.43288 10.5625C3.43288 15.7574 1.49628 17.3433 0.461286 18.3975C0.139858 18.7251 -0.00264152 19.1166 3.70385e-05 19.5C0.00592988 20.3328 0.695392 21.125 1.71967 21.125H22.2803C23.3046 21.125 23.9946 20.3328 24 19.5C24.0026 19.1166 23.8601 18.7246 23.5387 18.3975ZM3.6177 18.6875C4.75449 17.2671 5.99734 14.9129 6.00323 10.592C6.00323 10.5818 6.00002 10.5727 6.00002 10.5625C6.00002 7.42117 8.68608 4.875 12 4.875C15.3139 4.875 18 7.42117 18 10.5625C18 10.5727 17.9968 10.5818 17.9968 10.592C18.0027 14.9134 19.2455 17.2677 20.3823 18.6875H3.6177ZM12 26C13.8921 26 15.427 24.5451 15.427 22.75H8.57305C8.57305 24.5451 10.1079 26 12 26Z" fill="#4B4B4B"/>
</svg>
