<svg width="26" height="25" viewBox="0 0 26 25" fill="none" xmlns="http://www.w3.org/2000/svg">
<path d="M21.4842 0.317395L1.17171 12.0313C-0.507982 13.0029 -0.346849 15.4883 1.45003 16.2256L7.03108 18.5352V22.6563C7.03108 24.9219 9.92171 25.8545 11.2596 24.0527L13.3983 21.167L18.8621 23.4229C19.1502 23.5401 19.453 23.5986 19.7557 23.5986C20.1561 23.5986 20.5516 23.4961 20.908 23.2959C21.533 22.9443 21.9627 22.3193 22.075 21.6113L24.9754 2.70509C25.2733 0.747082 23.1737 -0.654285 21.4842 0.317395ZM9.37483 22.6563V19.502L11.1619 20.2393L9.37483 22.6563ZM19.7557 21.2549L12.2459 18.1543L19.0916 8.27638C19.6141 7.51954 18.6278 6.64064 17.9344 7.24122L7.60725 16.2402L2.34358 14.0625L22.6561 2.34376L19.7557 21.2549Z" fill="#727272"/>
</svg>
