<svg width="21" height="17" viewBox="0 0 21 17" fill="none" xmlns="http://www.w3.org/2000/svg">
<path d="M19.9099 5.60472L14.808 1.23353C13.7445 0.322244 11.9048 0.960427 11.9048 2.26403V4.00068C10.4007 4.05776 8.9275 4.19955 7.62613 4.5469C6.38003 4.87936 5.39151 5.38429 4.68856 6.0474C3.83432 6.85382 3.40136 7.86791 3.40136 9.06236C3.40136 10.9356 4.57688 12.4767 6.40837 13.4576C7.73866 14.1713 9.42878 13.0735 8.92467 11.7652C8.37496 10.3346 8.31682 9.61182 11.9048 9.37388V11.0074C11.9048 12.3127 13.746 12.9479 14.808 12.0379L19.9099 7.6657C20.5742 7.09671 20.5742 6.1737 19.9099 5.60472ZM13.6054 11.0074V7.85455C9.0458 7.91291 5.89895 8.55865 7.30973 12.2218C6.26381 11.6617 5.10204 10.6454 5.10204 9.06236C5.10204 5.74274 9.67757 5.45087 13.6054 5.42345V2.26306L18.7075 6.63521L13.6054 11.0074ZM14.482 13.5728C14.7438 13.5087 14.9939 13.4136 15.2251 13.2903C15.5077 13.1399 15.873 13.3154 15.873 13.6004V14.8937C15.873 15.6986 15.1116 16.3511 14.1723 16.3511H1.70068C0.761408 16.3511 0 15.6986 0 14.8937V4.20623C0 3.40133 0.761408 2.74885 1.70068 2.74885H6.37755C6.61235 2.74885 6.80272 2.91199 6.80272 3.1132V3.2494C6.80272 3.39869 6.69688 3.53386 6.53454 3.588C6.04907 3.74986 5.59931 3.93829 5.1864 4.15228C5.11937 4.18734 5.04242 4.206 4.96389 4.20623H1.91326C1.85688 4.20623 1.80281 4.22543 1.76294 4.25959C1.72308 4.29376 1.70068 4.34009 1.70068 4.38841V14.7115C1.70068 14.7599 1.72308 14.8062 1.76294 14.8404C1.80281 14.8745 1.85688 14.8937 1.91326 14.8937H13.9597C14.0161 14.8937 14.0702 14.8745 14.1101 14.8404C14.1499 14.8062 14.1723 14.7599 14.1723 14.7115V13.9232C14.1723 13.7601 14.2991 13.6177 14.482 13.5728Z" fill="#4B4B4B"/>
</svg>
