<svg width="13" height="16" viewBox="0 0 13 16" fill="none" xmlns="http://www.w3.org/2000/svg">
<path d="M0.292924 7.47069C-0.0975972 7.86122 -0.0975919 8.49438 0.292936 8.8849L6.65695 15.2488C7.04748 15.6393 7.68064 15.6393 8.07116 15.2488C8.46169 14.8583 8.46168 14.2251 8.07115 13.8346L2.41425 8.17778L8.07106 2.52087C8.46158 2.13035 8.46157 1.49718 8.07104 1.10666C7.68052 0.71614 7.04735 0.716146 6.65683 1.10667L0.292924 7.47069ZM2.00004 7.17778L1.00003 7.17779L1.00005 9.17779L2.00005 9.17778L2.00004 7.17778Z" fill="#4B4B4B"/>
<path d="M4.29292 7.47069C3.9024 7.86122 3.90241 8.49438 4.29294 8.8849L10.657 15.2488C11.0475 15.6393 11.6806 15.6393 12.0712 15.2488C12.4617 14.8583 12.4617 14.2251 12.0712 13.8346L6.41425 8.17778L12.0711 2.52087C12.4616 2.13035 12.4616 1.49718 12.071 1.10666C11.6805 0.71614 11.0474 0.716146 10.6568 1.10667L4.29292 7.47069ZM6.00004 7.17778L5.00003 7.17779L5.00005 9.17779L6.00005 9.17778L6.00004 7.17778Z" fill="#4B4B4B"/>
</svg>
