<svg width="45" height="37" viewBox="0 0 45 37" fill="none" xmlns="http://www.w3.org/2000/svg">
<path d="M40.3743 9.10846C40.4029 9.50818 40.4029 9.908 40.4029 10.3077C40.4029 22.4999 31.1231 36.5482 14.1624 36.5482C8.93716 36.5482 4.08313 35.0348 0 32.408C0.742412 32.4936 1.45617 32.5222 2.22715 32.5222C6.53862 32.5222 10.5076 31.066 13.677 28.5819C9.62244 28.4962 6.22459 25.8407 5.05389 22.1859C5.625 22.2715 6.19603 22.3286 6.7957 22.3286C7.62372 22.3286 8.45183 22.2144 9.22271 22.0146C4.99685 21.1579 1.82733 17.446 1.82733 12.9632V12.849C3.05508 13.5343 4.48286 13.9626 5.99607 14.0196C3.51193 12.3635 1.88446 9.53675 1.88446 6.33876C1.88446 4.6256 2.34123 3.05517 3.14077 1.6846C7.68076 7.28103 14.505 10.9358 22.1572 11.3356C22.0145 10.6503 21.9288 9.93656 21.9288 9.22272C21.9288 4.14018 26.0405 0 31.1515 0C33.807 0 36.2054 1.11357 37.8901 2.91243C39.9744 2.51271 41.9731 1.74173 43.7435 0.685283C43.0581 2.82683 41.602 4.62568 39.6889 5.76773C41.5449 5.56796 43.3438 5.05389 44.9998 4.34013C43.7437 6.16746 42.1732 7.79493 40.3743 9.10846Z" fill="#26B6E3"/>
</svg>
